<svg width="44" height="44" viewBox="0 0 44 44" fill="none" xmlns="http://www.w3.org/2000/svg">
<g clip-path="url(#clip0_101_118)">
<path d="M22.7928 23.5884C20.8727 24.5899 18.5043 23.8453 17.5028 21.9252L15.8237 18.7061C15.6986 18.4663 15.6361 18.3464 15.6209 18.2322C15.5956 18.0407 15.6562 17.8478 15.7866 17.7053C15.8644 17.6202 15.9843 17.5577 16.2241 17.4326L21.5034 14.6789C21.7432 14.5538 21.8631 14.4913 21.9773 14.4761C22.1688 14.4508 22.3617 14.5114 22.5042 14.6418C22.5893 14.7196 22.6518 14.8395 22.7769 15.0793L24.456 18.2984C25.4575 20.2184 24.7129 22.5868 22.7928 23.5884ZM22.7928 23.5884L23.6995 25.3267M22.9448 15.4012L24.3934 14.6456C24.6634 14.5048 24.7984 14.4344 24.9278 14.4229C25.1005 14.4077 25.2721 14.4616 25.405 14.5729C25.5047 14.6564 25.5751 14.7914 25.7159 15.0614L25.867 15.3511C26.1481 15.89 26.2886 16.1594 26.3447 16.4113C26.4969 17.095 26.2727 17.808 25.7567 18.2816C25.5665 18.4562 25.2971 18.5967 24.7582 18.8778M15.9916 19.028L14.543 19.7836C14.273 19.9245 14.138 19.9949 14.0546 20.0945C13.9433 20.2274 13.8893 20.399 13.9046 20.5717C13.916 20.7012 13.9864 20.8362 14.1272 21.1061L14.2783 21.3959C14.5594 21.9347 14.7 22.2041 14.8745 22.3943C15.3481 22.9103 16.0611 23.1345 16.7448 22.9823C16.9967 22.9262 17.2662 22.7857 17.805 22.5046M22.2688 29.0213L27.5481 26.2675C27.6903 26.1934 27.7455 26.0179 27.6713 25.8757C27.0778 24.7379 25.6743 24.2966 24.5365 24.8901L22.8626 25.7632C21.7248 26.3567 21.2835 27.7602 21.877 28.8981C21.9512 29.0403 22.1266 29.0955 22.2688 29.0213Z" stroke="#FF5555" stroke-width="1.30704" stroke-linecap="round" stroke-linejoin="round"/>
</g>
<circle cx="21.8864" cy="21.8504" r="15.3578" transform="rotate(-27.547 21.8864 21.8504)" stroke="#FF5555" stroke-width="0.653521"/>
<defs>
<clipPath id="clip0_101_118">
<rect width="15.6845" height="15.6845" fill="white" transform="translate(11.3061 18.5238) rotate(-27.547)"/>
</clipPath>
</defs>
</svg>
