<svg width="33" height="33" viewBox="0 0 33 33" fill="none" xmlns="http://www.w3.org/2000/svg">
<path d="M17.8735 14.6063L16.2397 14.6063C15.6983 14.6063 15.2595 15.0452 15.2595 15.5866C15.2595 16.1279 15.6983 16.5668 16.2397 16.5668H16.8933C17.4346 16.5668 17.8735 17.0057 17.8735 17.5471C17.8735 18.0885 17.4346 18.5274 16.8933 18.5274H15.2595M16.5665 13.9528V14.6063M16.5665 18.5274V19.1809M20.4876 16.5668H20.4942M12.6454 16.5668H12.6519M10.0313 14.0835L10.0313 19.0502C10.0313 19.7822 10.0313 20.1482 10.1737 20.4278C10.2991 20.6738 10.499 20.8737 10.7449 20.999C11.0245 21.1415 11.3905 21.1415 12.1225 21.1415L21.0104 21.1415C21.7425 21.1415 22.1085 21.1415 22.3881 20.999C22.634 20.8737 22.8339 20.6738 22.9592 20.4278C23.1017 20.1482 23.1017 19.7822 23.1017 19.0502V14.0835C23.1017 13.3514 23.1017 12.9854 22.9593 12.7058C22.8339 12.4599 22.634 12.26 22.3881 12.1346C22.1085 11.9922 21.7425 11.9922 21.0104 11.9922L12.1225 11.9922C11.3905 11.9922 11.0245 11.9922 10.7449 12.1346C10.499 12.26 10.2991 12.4599 10.1737 12.7058C10.0313 12.9854 10.0313 13.3514 10.0313 14.0835ZM20.8144 16.5668C20.8144 16.7473 20.6681 16.8936 20.4876 16.8936C20.3072 16.8936 20.1609 16.7473 20.1609 16.5668C20.1609 16.3864 20.3072 16.2401 20.4876 16.2401C20.6681 16.2401 20.8144 16.3864 20.8144 16.5668ZM12.9721 16.5668C12.9721 16.7473 12.8258 16.8936 12.6454 16.8936C12.4649 16.8936 12.3186 16.7473 12.3186 16.5668C12.3186 16.3864 12.4649 16.2401 12.6454 16.2401C12.8258 16.2401 12.9721 16.3864 12.9721 16.5668Z" stroke="#FF5555" stroke-width="1.30704" stroke-linecap="round" stroke-linejoin="round"/>
<circle cx="16.5666" cy="16.567" r="15.3578" stroke="#FF5555" stroke-width="0.653521"/>
</svg>
