<svg width="32" height="32" viewBox="0 0 32 32" fill="none" xmlns="http://www.w3.org/2000/svg">
<g clip-path="url(#clip0_101_118)">
<path d="M16.1407 17.7056C13.9751 17.7056 12.2195 15.9501 12.2195 13.7845V10.1538C12.2195 9.88336 12.2195 9.74813 12.2589 9.63984C12.325 9.45832 12.468 9.31532 12.6495 9.24925C12.7578 9.20984 12.893 9.20984 13.1635 9.20984L19.1178 9.20984C19.3883 9.20984 19.5235 9.20984 19.6318 9.24925C19.8133 9.31532 19.9563 9.45832 20.0224 9.63984C20.0618 9.74813 20.0618 9.88336 20.0618 10.1538V13.7845C20.0618 15.9501 18.3062 17.7056 16.1407 17.7056ZM16.1407 17.7056V19.6662M20.0618 10.5169H21.6956C22.0001 10.5169 22.1523 10.5169 22.2724 10.5666C22.4326 10.633 22.5598 10.7602 22.6261 10.9203C22.6759 11.0404 22.6759 11.1927 22.6759 11.4972V11.8239C22.6759 12.4317 22.6759 12.7356 22.6091 12.9849C22.4278 13.6615 21.8993 14.1899 21.2227 14.3712C20.9734 14.438 20.6695 14.438 20.0618 14.438M12.2195 10.5169H10.5857C10.2812 10.5169 10.129 10.5169 10.0089 10.5666C9.84874 10.633 9.72151 10.7602 9.65518 10.9203C9.60544 11.0404 9.60544 11.1927 9.60544 11.4972V11.8239C9.60544 12.4317 9.60544 12.7356 9.67224 12.9849C9.85353 13.6615 10.382 14.1899 11.0586 14.3712C11.3079 14.438 11.6118 14.438 12.2195 14.438M13.1635 22.2803H19.1178C19.2782 22.2803 19.4083 22.1502 19.4083 21.9898C19.4083 20.7065 18.3679 19.6662 17.0846 19.6662H15.1967C13.9134 19.6662 12.873 20.7065 12.873 21.9898C12.873 22.1502 13.0031 22.2803 13.1635 22.2803Z" stroke="#FF5555" stroke-width="1.30704" stroke-linecap="round" stroke-linejoin="round"/>
</g>
<circle cx="16.1407" cy="15.7454" r="15.3578" stroke="#FF5555" stroke-width="0.653521"/>
<defs>
<clipPath id="clip0_101_118">
<rect width="15.6845" height="15.6845" fill="white" transform="translate(8.29837 7.90283)"/>
</clipPath>
</defs>
</svg>
